<?xml version="1.0" encoding="utf-8"?>
<!-- Generator: Adobe Illustrator 21.0.2, SVG Export Plug-In . SVG Version: 6.00 Build 0)  -->
<svg version="1.1" id="Layer_1" xmlns="http://www.w3.org/2000/svg" xmlns:xlink="http://www.w3.org/1999/xlink" x="0px" y="0px"
	 viewBox="0 0 60 60" style="enable-background:new 0 0 60 60;" xml:space="preserve">
<title>edit</title>
<desc>Created with Sketch.</desc>
<g id="Page-1">
	<g id="edit">
		<path d="M38.2,6.7l-3.2,3.2L33.1,8h-24V52h36.5V28.9l4.6-4.6v28.4c0,2.1-1.7,3.8-3.8,3.8H8.3c-2.1,0-3.8-1.7-3.8-3.8V7.3
			c0-2.1,1.7-3.8,3.8-3.8h26.6L38.2,6.7z M53.5,6.2c2.6,2.6,2.6,6.8,0,9.4L32,37.1c-0.1,0.1-0.3,0.2-0.5,0.2l-7.9,0.8
			c-1,0.1-2-0.7-2.1-1.7c0-0.1,0-0.3,0-0.4l0.8-7.9c0-0.2,0.1-0.3,0.2-0.5L44.1,6.2C46.7,3.6,50.9,3.6,53.5,6.2z M26.4,33.3l3.3-0.3
			l20.6-20.6c0.8-0.8,0.8-2.1,0-3c-0.8-0.8-2.1-0.8-3,0L26.7,30L26.4,33.3z"/>
	</g>
</g>
</svg>
