<?xml version="1.0" encoding="utf-8"?>
<!-- Generator: Adobe Illustrator 21.0.2, SVG Export Plug-In . SVG Version: 6.00 Build 0)  -->
<svg version="1.1" id="Layer_1" xmlns="http://www.w3.org/2000/svg" xmlns:xlink="http://www.w3.org/1999/xlink" x="0px" y="0px"
	 viewBox="0 0 60 60" style="enable-background:new 0 0 60 60;" xml:space="preserve">
<title>Asset 2</title>
<path d="M27,29.8c7.2,0,13.1-5.8,13.1-13s-5.8-13-13.1-13c-7.2,0-13.1,5.8-13.1,13S19.8,29.8,27,29.8z M27,8.7
	c4.5,0,8.1,3.6,8.1,8.1c0,4.4-3.6,8.1-8.1,8.1s-8.1-3.6-8.1-8.1S22.6,8.7,27,8.7z M52.1,48.8H35.8c-1.2,0-2.2-1-2.2-2.2
	s1-2.2,2.2-2.2h16.3c1.2,0,2.2,1,2.2,2.2S53.3,48.8,52.1,48.8z M39.3,40.1c1.9-0.8,2.2-3.5,0.5-4.6c-2.5-1.6-5.4-2.5-8.6-2.5h-8.8
	c-8.8,0-15.9,6.9-16,15.5c0,1.5,1.1,2.8,2.6,2.9c1.5,0.1,2.8-1.2,2.8-2.6c0-5.8,4.8-10.6,10.6-10.6h8.8c2.1,0,4.1,0.6,5.7,1.7
	C37.6,40.3,38.5,40.4,39.3,40.1L39.3,40.1z"/>
</svg>
