<?xml version="1.0" encoding="utf-8"?>
<!-- Generator: Adobe Illustrator 21.1.0, SVG Export Plug-In . SVG Version: 6.00 Build 0)  -->
<svg version="1.1" id="Layer_1" xmlns="http://www.w3.org/2000/svg" xmlns:xlink="http://www.w3.org/1999/xlink" x="0px" y="0px"
	 viewBox="0 0 100 100" style="enable-background:new 0 0 100 100;" xml:space="preserve">
<style type="text/css">
	.st0{fill:#7052cc;}
	.st1{fill:#FFFFFF;}
</style>
<g>
	<g>
		<g>
			<path class="st0" d="M50,100L50,100C22.4,100,0,77.6,0,50v0C0,22.4,22.4,0,50,0h37.5C94.4,0,100,5.6,100,12.5V50
				C100,77.6,77.6,100,50,100z"/>
		</g>
	</g>
	<g>
		<g>
			<g>
				<path class="st1" d="M50,75c9.3,0,17.4-5.1,21.7-12.6C67.4,55,59.3,50,50.1,50h0c-9.3,0-17.4,5.1-21.7,12.6
					C32.7,70,40.8,75,50,75z"/>
			</g>
		</g>
	</g>
	<g>
		<g>
			<circle class="st1" cx="49.9" cy="34.8" r="9.8"/>
		</g>
	</g>
</g>
</svg>
