<?xml version="1.0" encoding="utf-8"?>
<!-- Generator: Adobe Illustrator 21.0.2, SVG Export Plug-In . SVG Version: 6.00 Build 0)  -->
<svg version="1.1" id="Layer_1" xmlns="http://www.w3.org/2000/svg" xmlns:xlink="http://www.w3.org/1999/xlink" x="0px" y="0px"
	 viewBox="0 0 60 60" style="enable-background:new 0 0 60 60;" xml:space="preserve">
<title>dm</title>
<desc>Created with Sketch.</desc>
<path d="M50.1,4.2H30C15.3,4.2,3.3,16.2,3.3,31v0c0,14.8,12,26.8,26.8,26.8h0c14.8,0,26.8-12,26.8-26.8V10.9
	C56.8,7.2,53.8,4.2,50.1,4.2z M30,17.6c2.9,0,5.3,2.4,5.3,5.3s-2.4,5.3-5.3,5.3c-2.9,0-5.3-2.4-5.3-5.3S27.1,17.6,30,17.6z M30,44.3
	c-4.9,0-9.3-2.7-11.6-6.7c2.3-4,6.6-6.7,11.6-6.7h0c4.9,0,9.3,2.7,11.6,6.7C39.4,41.6,35,44.3,30,44.3z"/>
</svg>
